<?xml version="1.0" encoding="utf-8"?>
<!-- Generator: Adobe Illustrator 16.0.0, SVG Export Plug-In . SVG Version: 6.00 Build 0)  -->
<!DOCTYPE svg PUBLIC "-//W3C//DTD SVG 1.1//EN" "http://www.w3.org/Graphics/SVG/1.1/DTD/svg11.dtd">
<svg version="1.1" id="Isolation_Mode" xmlns="http://www.w3.org/2000/svg" xmlns:xlink="http://www.w3.org/1999/xlink" x="0px"
	 y="0px" width="245.715px" height="258.301px" viewBox="0 0 245.715 258.301" enable-background="new 0 0 245.715 258.301"
	 xml:space="preserve">
<path fill="#FFFFFF" d="M160.241,129.731h51.843c1.641,0,2.972,1.331,2.972,2.972s-1.331,2.972-2.972,2.972h-51.843v-1.805v-2.446
	V129.731L160.241,129.731z M33.627,135.675c-1.64,0-2.972-1.331-2.972-2.972s1.332-2.972,2.972-2.972h51.847v2.27v2.434v1.24H33.627
	L33.627,135.675z M85.474,258.301H20.604c-3.282,0-5.944-2.662-5.944-5.944V129.136H5.943c-3.281,0-5.943-2.661-5.943-5.943V79.605
	c0-3.282,2.662-5.944,5.943-5.944h27.952c4.643,2.154,9.275,3.939,13.408,5.42c6.601,2.364,13.291,4.445,20.019,6.41l0.133,0.059
	H11.889v31.698h73.585v0.147v2.434v2.435v0.929H26.549v123.22h58.925V258.301L85.474,258.301z M214.329,73.661h25.441
	c3.283,0,5.944,2.662,5.944,5.944v43.587c0,3.282-2.661,5.943-5.944,5.943h-8.718v123.221c0,3.282-2.662,5.944-5.943,5.944h-64.868
	v-11.889h58.924v-123.22h-58.924v-1.555v-2.447v-1.942h73.585V85.55h-61.837c4.355-1.527,8.739-2.982,13.173-4.325
	C189.795,79.822,204.143,75.472,214.329,73.661L214.329,73.661z"/>
<path fill="#FFFFFF" d="M51.35,67.784C36.76,62.56,20.843,54.858,17.601,44.896c-1.322-4.08-0.788-9.026,1.269-12.762
	c2.694-4.895,7.53-7.265,12.975-7.265c3.283,0,5.944,2.661,5.944,5.944c0,3.282-2.661,5.943-5.944,5.943
	c-4.865,0-2.441,6.793,0.545,8.801c11.692,7.863,26.759,12.725,40.29,16.506c-11.314-9.061-18.948-19.223-21.58-34.081
	C46.467,1.813,67.419-5.3,88.895,3.722c16.721,7.023,27.738,18.989,33.963,35.341c6.229-16.353,17.233-28.313,33.963-35.341
	c21.476-9.021,42.428-1.908,37.796,24.261c-2.163,12.207-8.439,22.736-17.673,30.808c22.455-6.82,44.568-12.713,56.274-7.614
	c2.999,1.308,4.373,4.802,3.065,7.801c-1.309,2.999-4.803,4.373-7.802,3.065c-7.849-3.42-26.894,1.671-46.797,7.697
	c-11.716,3.548-21.902,7.403-33.443,11.812c0,53.621,0,111.241,0,164.861v11.889H97.473v-11.889c0-53.62,0-111.24,0-164.861
	C82.308,77.161,66.16,73.087,51.35,67.784L51.35,67.784z M133.01,67.398c18.632-8.534,42.41-19.562,46.394-42.071
	c2.286-12.932-5.839-11.88-16.605-7.358C141.701,26.829,134.195,45.126,133.01,67.398L133.01,67.398z M112.705,67.398
	c-1.186-22.272-8.693-40.569-29.788-49.43c-10.767-4.521-18.892-5.573-16.605,7.358C70.296,47.837,94.071,58.862,112.705,67.398
	L112.705,67.398z"/>
</svg>
