<?xml version="1.0" encoding="utf-8"?>
<!-- Generator: Adobe Illustrator 16.0.0, SVG Export Plug-In . SVG Version: 6.00 Build 0)  -->
<!DOCTYPE svg PUBLIC "-//W3C//DTD SVG 1.1//EN" "http://www.w3.org/Graphics/SVG/1.1/DTD/svg11.dtd">
<svg version="1.1" id="Layer_1" xmlns="http://www.w3.org/2000/svg" xmlns:xlink="http://www.w3.org/1999/xlink" x="0px" y="0px"
	 width="155.695px" height="153.325px" viewBox="0 0 155.695 153.325" enable-background="new 0 0 155.695 153.325"
	 xml:space="preserve">
<g>
	<path fill="#E62F49" d="M144.341,132.142c0,6.023-3.768,10.906-8.419,10.906H12.472c-4.65,0-8.418-4.883-8.418-10.906V14.898
		c0-6.023,3.769-10.906,8.418-10.906h123.45c4.651,0,8.419,4.883,8.419,10.906V132.142z"/>
	<g>
		<path fill-rule="evenodd" clip-rule="evenodd" fill="#B42435" d="M139.003,58.296c0.125-0.025,0.209-0.057,0.294-0.057
			c1.684-0.002,3.366-0.001,5.049,0V47.156h-5.362c2.697-5.279,3.26-10.72,1.544-16.345c-1.12-3.673-3.156-6.788-5.999-9.369
			c-2.165-1.964-4.635-3.417-7.405-4.347c-2.751-0.924-5.578-1.261-8.478-1.028c-2.91,0.233-5.646,1.054-8.27,2.425
			c-0.016-0.146-0.034-0.235-0.034-0.325c-0.002-3.642-0.002-7.285-0.001-10.926c0-0.081,0.011-1.041,0.016-1.121H99.229
			c0.006,0.064,0.016,1.008,0.016,1.071c0.001,3.662,0.001,7.322,0,10.983c0,0.08-0.009,0.159-0.018,0.317
			c-4.491-2.329-9.198-3.066-14.124-2.09c-4.941,0.978-9.022,3.453-12.226,7.338c-2.71,3.288-4.266,7.076-4.681,11.313
			c-0.413,4.233,0.399,8.242,2.403,12.061c-0.148,0.016-0.25,0.031-0.351,0.035c-0.145,0.005-0.291,0-0.435,0
			c-21.772,0-43.543,0-65.314,0.001c-0.226,0-0.451,0.003-0.677,0.006v11.128c0.239-0.017,0.478-0.047,0.717-0.047
			c21.754-0.001,43.508-0.001,65.262-0.001c0.145,0,0.29-0.006,0.435,0.002c0.102,0.005,0.203,0.031,0.348,0.054
			c-2.11,4.048-2.897,8.298-2.302,12.774c0.599,4.499,2.476,8.414,5.592,11.714c2.779,2.943,6.137,4.95,10.064,5.938
			c5.293,1.332,10.382,0.701,15.307-1.835v0.678c0,18.496,0,36.993,0,55.489h11.096c-0.001-18.496-0.001-36.992-0.001-55.488v-0.679
			c5.021,2.579,10.202,3.191,15.583,1.763c3.879-1.03,7.181-3.065,9.919-6c2.007-2.15,3.5-4.619,4.467-7.396
			c0.973-2.792,1.345-5.663,1.117-8.615C141.201,63.703,140.39,60.943,139.003,58.296z M101.354,57.838
			c-0.477,2.367-0.886,4.753-1.465,7.095c-0.963,3.896-2.106,7.741-3.697,11.437c-1.743,4.053-4.868,6.445-9.15,7.226
			c-3.977,0.724-7.467-0.472-10.391-3.233c-2.176-2.053-3.337-4.615-3.571-7.608c-0.234-2.988,0.359-5.772,1.994-8.302
			c1.125-1.742,2.625-3.088,4.466-4.043c2.5-1.296,5.146-2.203,7.867-2.898c3.389-0.866,6.82-1.521,10.275-2.05
			c1.226-0.187,2.453-0.366,3.68-0.546c0.156-0.022,0.314-0.023,0.542-0.038C101.714,55.907,101.548,56.875,101.354,57.838z
			 M100.032,49.477c-2.324-0.451-4.664-0.831-6.967-1.372c-4.313-1.013-8.568-2.246-12.65-3.997
			c-4.053-1.739-6.428-4.866-7.222-9.156c-1.06-5.729,2.408-11.521,7.926-13.373c1.768-0.593,3.588-0.74,5.441-0.565
			c2.042,0.192,3.938,0.806,5.669,1.91c1.822,1.162,3.22,2.715,4.204,4.638c1.352,2.64,2.281,5.434,2.982,8.306
			c0.865,3.539,1.547,7.114,2.058,10.722c0.149,1.051,0.309,2.101,0.476,3.243C101.259,49.705,100.645,49.595,100.032,49.477z
			 M127.585,83.267c-4.327,1.166-8.375,0.438-11.912-2.455c-1.303-1.064-2.277-2.402-3.022-3.911
			c-1.4-2.832-2.346-5.821-3.057-8.888c-0.814-3.516-1.482-7.06-1.964-10.637c-0.099-0.735-0.216-1.467-0.323-2.2
			c-0.011-0.075-0.014-0.152-0.023-0.259c0.106,0,0.185-0.012,0.258,0.002c2.655,0.508,5.326,0.95,7.963,1.542
			c4.528,1.017,8.974,2.318,13.259,4.124c3.758,1.584,6.079,4.425,7.088,8.325C137.444,75.058,133.707,81.618,127.585,83.267z
			 M132.577,42.206c-0.883,0.933-1.939,1.647-3.084,2.225c-2.571,1.298-5.284,2.213-8.073,2.902
			c-3.519,0.868-7.077,1.549-10.666,2.063c-0.988,0.142-1.976,0.294-2.963,0.437c-0.139,0.021-0.279,0.02-0.452,0.03
			c0.012-0.147,0.01-0.256,0.031-0.362c0.511-2.673,0.955-5.362,1.555-8.015c1.006-4.451,2.282-8.828,4.066-13.038
			c1.759-4.15,4.942-6.567,9.338-7.328c5.792-1.001,11.677,2.59,13.289,8.23C136.986,34.138,136.074,38.514,132.577,42.206z"/>
	</g>
	<path fill-rule="evenodd" clip-rule="evenodd" fill="#B42435" d="M4.152,131.152c1.238,1.921,3.246,2.345,5.219,2.817
		c1.444,0.348,2.919,0.307,4.392,0.307c28.362-0.008,56.722-0.012,85.084-0.015c0.246,2.694,0.036,5.396,0.112,8.093
		c0.016,0.537-0.153,0.797-0.707,0.751c-0.366-0.03-0.737-0.004-1.106-0.004c-27.354,0-54.709-0.125-82.062,0.093
		C8.62,143.246,3.258,139.313,4.152,131.152z"/>
	<path fill-rule="evenodd" clip-rule="evenodd" fill="#B42435" d="M110.17,134.235c9.383,0.002,18.767,0.048,28.15-0.028
		c2.122-0.017,4.197-0.64,5.83-2.812c0.13,2.441,0.045,4.83-0.911,7.003c-1.313,2.986-3.247,4.629-5.751,4.646
		c-8.86,0.062-17.719,0.015-26.579,0.044c-0.679,0.003-0.883-0.275-0.85-1.199C110.152,139.341,109.95,136.782,110.17,134.235z"/>
	<g>
		<path fill-rule="evenodd" clip-rule="evenodd" fill="#FFFFFF" d="M136.818,45.028c2.696-5.279,3.258-10.72,1.543-16.345
			c-1.12-3.674-3.156-6.788-5.999-9.369c-2.165-1.964-4.636-3.416-7.405-4.347c-2.752-0.924-5.578-1.262-8.477-1.029
			c-2.911,0.234-5.646,1.054-8.271,2.426c-0.016-0.146-0.035-0.236-0.035-0.325c-0.001-3.642-0.001-7.285,0-10.927
			c0-0.08,0.01-1.04,0.016-1.12H97.061C97.067,4.057,97.077,5,97.077,5.064c0,3.662,0,7.322,0,10.983
			c0,0.08-0.009,0.159-0.018,0.317c-4.491-2.329-9.198-3.066-14.124-2.09c-4.942,0.978-9.022,3.453-12.226,7.337
			c-2.711,3.288-4.266,7.077-4.68,11.313c-0.413,4.234,0.398,8.242,2.402,12.062c-0.148,0.015-0.25,0.031-0.351,0.035
			c-0.146,0.004-0.291,0-0.435,0c-21.32,0-42.639,0-63.957,0v11.088c21.314-0.001,42.63-0.001,63.944-0.001
			c0.146,0,0.291-0.006,0.436,0.001c0.102,0.006,0.203,0.031,0.348,0.055c-2.11,4.048-2.897,8.298-2.302,12.774
			c0.599,4.499,2.476,8.413,5.592,11.713c2.778,2.944,6.137,4.951,10.064,5.939c5.293,1.33,10.382,0.699,15.307-1.836v0.677
			c0,19.045,0,38.09-0.001,57.134c0,0.162-0.01,0.322-0.017,0.482h11.128c-0.006-0.16-0.016-0.32-0.016-0.482
			c-0.001-19.043-0.001-38.088-0.001-57.132v-0.679c5.021,2.58,10.202,3.191,15.583,1.763c3.879-1.03,7.181-3.065,9.919-6.001
			c2.006-2.149,3.5-4.618,4.467-7.396c0.973-2.792,1.346-5.664,1.117-8.614c-0.226-2.932-1.038-5.691-2.424-8.338
			c0.125-0.025,0.21-0.058,0.294-0.058c2.532-0.003,5.063-0.002,7.595,0c0.077,0,0.155,0.03,0.234,0.045V45.028H136.818z
			 M99.186,55.709c-0.476,2.368-0.886,4.753-1.464,7.096c-0.964,3.896-2.107,7.741-3.697,11.437
			c-1.743,4.052-4.869,6.445-9.15,7.226c-3.977,0.725-7.468-0.473-10.391-3.232c-2.176-2.055-3.337-4.617-3.571-7.609
			c-0.234-2.988,0.359-5.772,1.994-8.302c1.125-1.742,2.625-3.088,4.467-4.043c2.5-1.296,5.146-2.203,7.867-2.897
			c3.388-0.866,6.819-1.521,10.275-2.05c1.226-0.187,2.453-0.367,3.68-0.546c0.156-0.022,0.315-0.023,0.542-0.039
			C99.546,53.779,99.38,54.748,99.186,55.709z M97.864,47.348c-2.323-0.45-4.664-0.83-6.967-1.371
			c-4.312-1.013-8.568-2.245-12.649-3.997c-4.053-1.739-6.428-4.866-7.222-9.156c-1.06-5.729,2.408-11.521,7.926-13.373
			c1.768-0.593,3.588-0.74,5.44-0.566c2.043,0.191,3.938,0.806,5.669,1.91c1.823,1.162,3.221,2.715,4.204,4.638
			c1.352,2.64,2.281,5.435,2.982,8.307c0.866,3.539,1.548,7.114,2.059,10.722c0.149,1.051,0.309,2.102,0.476,3.243
			C99.091,47.577,98.477,47.467,97.864,47.348z M125.417,81.139c-4.327,1.165-8.375,0.438-11.912-2.454
			c-1.303-1.066-2.276-2.403-3.022-3.912c-1.4-2.832-2.346-5.821-3.056-8.888c-0.814-3.516-1.482-7.06-1.964-10.638
			c-0.099-0.735-0.215-1.466-0.323-2.199c-0.011-0.076-0.014-0.153-0.023-0.259c0.106,0,0.184-0.012,0.257,0.001
			c2.655,0.509,5.326,0.951,7.963,1.543c4.528,1.017,8.974,2.318,13.259,4.124c3.757,1.584,6.079,4.425,7.088,8.325
			C135.277,72.929,131.54,79.489,125.417,81.139z M130.409,40.078c-0.883,0.932-1.938,1.646-3.084,2.225
			c-2.571,1.298-5.284,2.213-8.072,2.901c-3.52,0.869-7.077,1.55-10.666,2.063c-0.988,0.142-1.976,0.294-2.963,0.438
			c-0.139,0.021-0.279,0.02-0.452,0.03c0.012-0.146,0.01-0.257,0.03-0.361c0.512-2.673,0.956-5.362,1.555-8.016
			c1.006-4.451,2.282-8.827,4.067-13.038c1.759-4.149,4.941-6.566,9.338-7.327c5.792-1.002,11.677,2.59,13.289,8.23
			C134.818,32.01,133.907,36.386,130.409,40.078z"/>
	</g>
</g>
</svg>
