<?xml version="1.0" encoding="utf-8"?>
<!-- Generator: Adobe Illustrator 16.0.0, SVG Export Plug-In . SVG Version: 6.00 Build 0)  -->
<!DOCTYPE svg PUBLIC "-//W3C//DTD SVG 1.1//EN" "http://www.w3.org/Graphics/SVG/1.1/DTD/svg11.dtd">
<svg version="1.1" id="Layer_1" xmlns="http://www.w3.org/2000/svg" xmlns:xlink="http://www.w3.org/1999/xlink" x="0px" y="0px"
	 width="662.651px" height="411.949px" viewBox="0 0 662.651 411.949" enable-background="new 0 0 662.651 411.949"
	 xml:space="preserve">
<g>
	<path fill="#E62F49" d="M447.503,216.062c0,10.153-6.354,18.388-14.196,18.388H225.169c-7.84,0-14.194-8.234-14.194-18.388V18.388
		C210.976,8.234,217.33,0,225.169,0h208.138c7.843,0,14.196,8.234,14.196,18.388V216.062z"/>
	<g>
		<path fill-rule="evenodd" clip-rule="evenodd" fill="#B42435" d="M438.502,91.555c0.21-0.04,0.354-0.094,0.495-0.094
			c2.84-0.005,5.677-0.003,8.513,0V72.773h-9.038c4.547-8.902,5.495-18.075,2.603-27.558c-1.889-6.193-5.321-11.444-10.115-15.795
			c-3.648-3.312-7.814-5.761-12.485-7.329c-4.639-1.559-9.404-2.127-14.293-1.734c-4.907,0.395-9.518,1.776-13.943,4.089
			c-0.026-0.245-0.059-0.396-0.059-0.547c-0.002-6.142-0.002-12.283,0-18.421c0-0.137,0.019-1.755,0.025-1.892h-18.763
			c0.012,0.11,0.026,1.701,0.026,1.808c0.004,6.173,0.004,12.345,0,18.518c0,0.134-0.015,0.267-0.029,0.534
			c-7.571-3.926-15.509-5.169-23.813-3.524c-8.331,1.649-15.212,5.821-20.613,12.371c-4.568,5.544-7.19,11.931-7.892,19.074
			c-0.696,7.138,0.674,13.896,4.053,20.335c-0.251,0.025-0.423,0.053-0.594,0.059c-0.245,0.009-0.488,0.001-0.732,0.001
			c-36.708,0-73.415,0-110.12,0.001c-0.382,0-0.761,0.007-1.141,0.011v18.764c0.402-0.028,0.805-0.081,1.209-0.081
			c36.678-0.002,73.355-0.002,110.034-0.002c0.243,0,0.488-0.01,0.733,0.003c0.173,0.009,0.342,0.052,0.586,0.093
			c-3.557,6.824-4.884,13.988-3.881,21.537c1.012,7.585,4.175,14.184,9.428,19.75c4.687,4.963,10.348,8.346,16.97,10.013
			c8.924,2.242,17.503,1.179,25.808-3.096v1.143c0,31.186,0,62.37,0,93.555h18.707c-0.002-31.183-0.002-62.368-0.002-93.551v-1.146
			c8.464,4.349,17.2,5.381,26.273,2.971c6.541-1.736,12.107-5.168,16.725-10.114c3.383-3.627,5.9-7.788,7.531-12.472
			c1.64-4.708,2.267-9.548,1.883-14.523C442.208,100.673,440.841,96.019,438.502,91.555z M375.025,90.783
			c-0.803,3.992-1.492,8.014-2.471,11.964c-1.623,6.567-3.551,13.053-6.232,19.282c-2.938,6.832-8.208,10.866-15.426,12.184
			c-6.704,1.22-12.59-0.797-17.519-5.452c-3.67-3.463-5.626-7.783-6.022-12.827c-0.394-5.037,0.608-9.732,3.362-13.997
			c1.899-2.939,4.426-5.206,7.532-6.817c4.215-2.187,8.675-3.715,13.264-4.887c5.714-1.461,11.498-2.564,17.323-3.456
			c2.067-0.315,4.136-0.617,6.205-0.92c0.263-0.039,0.529-0.04,0.913-0.065C375.633,87.528,375.352,89.161,375.025,90.783z
			 M372.796,76.688c-3.918-0.76-7.864-1.4-11.746-2.313c-7.273-1.708-14.447-3.785-21.329-6.738
			c-6.832-2.933-10.837-8.203-12.175-15.437c-1.787-9.658,4.059-19.426,13.361-22.548c2.982-0.999,6.051-1.247,9.176-0.952
			c3.441,0.323,6.641,1.358,9.558,3.219c3.072,1.958,5.429,4.578,7.088,7.82c2.279,4.451,3.845,9.162,5.027,14.005
			c1.459,5.965,2.61,11.994,3.471,18.077c0.25,1.771,0.521,3.543,0.802,5.468C374.865,77.071,373.831,76.886,372.796,76.688z
			 M419.253,133.658c-7.296,1.964-14.121,0.736-20.083-4.141c-2.198-1.795-3.841-4.05-5.097-6.594
			c-2.361-4.773-3.956-9.813-5.154-14.986c-1.372-5.926-2.499-11.901-3.311-17.933c-0.167-1.239-0.364-2.474-0.544-3.709
			c-0.021-0.127-0.025-0.256-0.04-0.438c0.18,0,0.311-0.021,0.435,0.004c4.477,0.855,8.98,1.604,13.426,2.601
			c7.634,1.714,15.13,3.908,22.356,6.953c6.336,2.672,10.248,7.462,11.95,14.036C435.875,119.815,429.573,130.877,419.253,133.658z
			 M427.667,64.428c-1.488,1.571-3.269,2.776-5.199,3.75c-4.337,2.188-8.909,3.732-13.611,4.893
			c-5.934,1.464-11.932,2.61-17.981,3.48c-1.666,0.239-3.332,0.494-4.997,0.736c-0.233,0.034-0.47,0.032-0.762,0.05
			c0.02-0.247,0.018-0.432,0.052-0.609c0.861-4.507,1.61-9.04,2.621-13.513c1.696-7.503,3.849-14.884,6.856-21.98
			c2.966-6.998,8.331-11.073,15.745-12.356c9.767-1.688,19.688,4.367,22.404,13.876C435.101,50.824,433.564,58.204,427.667,64.428z"
			/>
	</g>
	<path fill-rule="evenodd" clip-rule="evenodd" fill="#B42435" d="M211.141,214.394c2.087,3.236,5.473,3.952,8.799,4.75
		c2.435,0.585,4.922,0.518,7.405,0.518c47.818-0.015,95.635-0.021,143.454-0.025c0.413,4.543,0.06,9.098,0.189,13.645
		c0.026,0.906-0.257,1.343-1.192,1.266c-0.617-0.05-1.243-0.008-1.866-0.008c-46.117,0-92.239-0.211-138.356,0.158
		C218.674,234.782,209.634,228.151,211.141,214.394z"/>
	<path fill-rule="evenodd" clip-rule="evenodd" fill="#B42435" d="M389.889,219.59c15.821,0.004,31.642,0.081,47.462-0.047
		c3.577-0.029,7.076-1.079,9.828-4.739c0.22,4.115,0.074,8.143-1.533,11.808c-2.215,5.033-5.477,7.803-9.698,7.833
		c-14.938,0.102-29.874,0.022-44.812,0.074c-1.146,0.005-1.49-0.464-1.434-2.021C389.86,228.198,389.518,223.885,389.889,219.59z"/>
	<g>
		<path fill-rule="evenodd" clip-rule="evenodd" fill="#FFFFFF" d="M434.819,69.187c4.546-8.901,5.493-18.075,2.601-27.559
			c-1.889-6.195-5.321-11.443-10.113-15.797c-3.65-3.311-7.817-5.76-12.485-7.328c-4.642-1.557-9.406-2.128-14.293-1.733
			c-4.909,0.395-9.52,1.776-13.945,4.089c-0.026-0.246-0.059-0.397-0.059-0.548c-0.002-6.139-0.002-12.28,0-18.422
			c0-0.134,0.019-1.754,0.025-1.889h-18.761c0.01,0.11,0.026,1.698,0.026,1.807c0.001,6.172,0.001,12.345,0,18.516
			c0,0.135-0.017,0.268-0.032,0.536c-7.572-3.927-15.506-5.168-23.811-3.524c-8.333,1.649-15.214,5.823-20.613,12.37
			c-4.572,5.543-7.193,11.931-7.892,19.074c-0.696,7.138,0.672,13.896,4.051,20.336c-0.251,0.024-0.421,0.052-0.592,0.06
			c-0.246,0.009-0.49,0-0.734,0c-35.944,0-71.889,0-107.831,0v18.695c35.936-0.003,71.874-0.003,107.811-0.003
			c0.245,0,0.491-0.011,0.736,0.003c0.172,0.01,0.342,0.053,0.585,0.092c-3.557,6.825-4.882,13.99-3.878,21.538
			c1.009,7.583,4.174,14.186,9.428,19.748c4.682,4.966,10.345,8.348,16.966,10.013c8.925,2.245,17.505,1.181,25.808-3.094v1.143
			c0,32.107,0,64.219,0,96.327c0,0.272-0.031,0.631-0.041,0.902l18.774-0.088c-0.01-0.271-0.025-0.542-0.025-0.814
			c-0.002-32.108-0.002-64.217-0.002-96.325v-1.145c8.464,4.35,17.2,5.38,26.274,2.973c6.539-1.736,12.106-5.169,16.724-10.117
			c3.383-3.625,5.902-7.788,7.531-12.471c1.64-4.707,2.27-9.549,1.884-14.523c-0.382-4.944-1.749-9.597-4.088-14.059
			c0.211-0.044,0.355-0.097,0.497-0.097c4.269-0.006,8.536-0.006,12.807,0c0.13,0,0.261,0.05,0.394,0.076V69.187H434.819z
			 M371.37,87.195c-0.802,3.99-1.493,8.016-2.468,11.962c-1.625,6.568-3.552,13.053-6.234,19.283
			c-2.939,6.834-8.209,10.867-15.427,12.183c-6.704,1.222-12.59-0.797-17.52-5.45c-3.667-3.463-5.626-7.782-6.02-12.829
			c-0.395-5.037,0.606-9.729,3.361-13.997c1.897-2.936,4.426-5.206,7.531-6.817c4.215-2.183,8.676-3.713,13.264-4.884
			c5.714-1.46,11.498-2.564,17.323-3.457c2.068-0.315,4.138-0.619,6.206-0.921c0.263-0.037,0.531-0.039,0.914-0.063
			C371.977,83.941,371.698,85.573,371.37,87.195z M369.141,73.097c-3.917-0.757-7.865-1.398-11.748-2.311
			c-7.271-1.707-14.445-3.786-21.325-6.738c-6.835-2.933-10.839-8.204-12.177-15.438c-1.788-9.659,4.06-19.424,13.363-22.547
			c2.981-1.001,6.05-1.247,9.173-0.954c3.445,0.323,6.641,1.359,9.56,3.22c3.073,1.96,5.429,4.578,7.086,7.821
			c2.279,4.45,3.848,9.162,5.028,14.004c1.462,5.966,2.61,11.994,3.472,18.076c0.251,1.774,0.521,3.544,0.803,5.468
			C371.21,73.483,370.175,73.298,369.141,73.097z M415.597,130.068c-7.297,1.966-14.119,0.739-20.085-4.138
			c-2.196-1.798-3.837-4.052-5.094-6.597c-2.361-4.772-3.955-9.812-5.153-14.983c-1.372-5.928-2.499-11.903-3.311-17.936
			c-0.166-1.239-0.363-2.472-0.544-3.707c-0.02-0.129-0.024-0.258-0.042-0.438c0.182,0,0.311-0.019,0.436,0.002
			c4.477,0.859,8.979,1.604,13.426,2.603c7.637,1.715,15.132,3.909,22.355,6.953c6.335,2.67,10.25,7.461,11.952,14.034
			C432.22,116.229,425.917,127.288,415.597,130.068z M424.011,60.839c-1.487,1.572-3.267,2.775-5.198,3.753
			c-4.336,2.188-8.908,3.73-13.611,4.89c-5.933,1.465-11.932,2.613-17.98,3.48c-1.668,0.238-3.332,0.495-4.998,0.736
			c-0.233,0.035-0.47,0.033-0.763,0.051c0.021-0.246,0.019-0.434,0.053-0.609c0.862-4.507,1.61-9.04,2.622-13.516
			c1.695-7.503,3.847-14.881,6.856-21.98c2.965-6.995,8.331-11.071,15.746-12.352c9.766-1.69,19.686,4.366,22.403,13.876
			C431.447,47.237,429.911,54.616,424.011,60.839z"/>
	</g>
</g>
<g>
	<g>
		<path fill="#E62F49" d="M22.438,356.905c-15.9,0-19.088-15.899-10.361-39.877c9.288-25.519,36.96-56.807,62.475-56.807
			c9.231,0,14.092,6.029,10.499,15.901c-5.087,13.978-24.945,25.901-36.099,25.901c-3.078,0-4.94-1.922-3.4-6.153
			c0.653-1.796,2.193-4.618,3.091-4.618c0.896,0,0.686,1.282,4.405,1.282c6.539,0,18.653-7.564,21.64-15.771
			c1.074-2.948,0.69-7.18-5.209-7.18c-16.027,0-38.544,24.876-46.712,47.315c-6.72,18.465-4.637,30.004,3.569,30.004
			c13.078,0,26.187-17.693,30.013-28.209c0.467-1.283,0.958-3.336,1.285-4.231c0.887-2.438,2.857-2.565,5.037-2.565
			c2.307,0,5.92,2.052,4.894,4.874c-3.162,6.925-5.483,12.949-7.817,19.363c-2.194,6.025-4.352,12.308-7.199,20.129
			c2.576-0.384,4.932-0.512,7.028-0.64c6.167-0.386-0.818,10.002-5.354,10.131c-1.923,0-3.637,0.128-5.478,0.256
			c-5.869,14.36-15.06,31.158-30.062,31.158c-8.719,0-11.98-6.539-8.853-15.129c4.761-13.081,18.949-20.005,32.181-23.597
			l0.467-1.282c2.006-5.512,3.289-9.743,4.408-12.821C38.606,352.29,30.26,356.905,22.438,356.905z M38.17,367.935
			c-9.443,2.691-15.914,7.436-18.247,13.847c-1.4,3.848,0.044,5.515,2.608,5.515C28.301,387.296,33.795,378.191,38.17,367.935z"/>
		<path fill="#E62F49" d="M18.681,404.511c-6.254,0-11.391-2.419-14.464-6.807c-3.354-4.79-3.811-11.245-1.288-18.177
			c2.267-6.229,6.352-11.696,12.106-16.288c-5.372-1.593-8.685-4.798-10.658-7.614c-6.097-8.707-5.82-22.922,0.8-41.11
			c9.406-25.839,38.747-61.634,69.375-61.634c7.033,0,12.741,2.621,16.074,7.379c3.399,4.856,3.87,11.38,1.325,18.374
			c-3.972,10.912-15.17,20.794-26.444,26.261c3.08,0.728,5.974,2.575,7.703,5.046c1.946,2.78,2.403,6.185,1.253,9.341l-0.22,0.538
			c-3.228,7.07-5.559,13.227-7.597,18.825c-1.021,2.806-2.035,5.668-3.115,8.716c-0.16,0.453-0.322,0.911-0.486,1.374
			c3.732,1.159,6.245,4.387,6.303,8.513c0.093,6.591-7.265,15.63-14.918,15.848l-0.208,0.002c-0.166,0-0.331,0.001-0.494,0.004
			C48.85,384.22,38.02,404.511,18.681,404.511z M38.362,302.574c-3.58,5.382-6.628,11.153-8.697,16.835
			c-4.534,12.459-3.716,18.525-3.033,20.14c8.511-0.405,19.442-14.093,22.817-23.364c0.2-0.55,0.397-1.284,0.586-1.95
			c0.258-0.916,0.506-1.755,0.699-2.284c0.379-1.043,0.859-1.978,1.439-2.799c-1.111,0.144-2.188,0.217-3.222,0.217
			c-3.949,0-7.372-1.656-9.394-4.543C39.124,304.204,38.7,303.455,38.362,302.574z M65.777,277.532
			c-3.776,1.148-8.077,3.873-12.409,7.648C56.228,284.931,62.377,281.548,65.777,277.532z"/>
	</g>
	<g>
		<path fill="#E62F49" d="M79.002,341.006c-0.42,1.154-2.146,5.897,1.188,5.897c5.128,0,10.424-8.207,13.629-13.849
			c4.388-7.821,9.116-1.794,6.598,2.31c-5.387,8.463-14.589,20.005-25.617,20.005c-6.795,0-8.762-5.517-6.381-12.055l12.461-34.237
			c0.886-2.436,0.653-3.205,0.979-4.104c0.466-1.283,2.333-2.18,4.127-2.18c4.232,0,5.992,2.564,4.871,5.643L79.002,341.006z
			 M89.736,282.278c1.633-4.488,6.308-7.822,10.54-7.822c4.487,0,6.607,3.334,4.975,7.822c-1.54,4.23-6.181,7.822-10.668,7.822
			C90.351,290.101,88.196,286.509,89.736,282.278z"/>
		<path fill="#E62F49" d="M74.801,362.71c-5.195,0-9.505-2.068-12.136-5.827c-2.969-4.241-3.375-9.953-1.144-16.081l12.46-34.237
			c0.282-0.771,0.321-1.067,0.382-1.517c0.082-0.598,0.205-1.506,0.599-2.587c1.524-4.19,5.955-7.009,11.025-7.009
			c0.562,0,1.112,0.026,1.647,0.078c-1.367-0.846-2.555-1.96-3.497-3.307c-2.44-3.483-2.914-8.023-1.3-12.457
			c2.668-7.331,10.002-12.652,17.44-12.652c4.479,0,8.376,1.896,10.69,5.2c2.393,3.417,2.824,7.964,1.184,12.474
			c-2.625,7.213-10.177,12.653-17.567,12.653c-0.413,0-0.819-0.017-1.222-0.051c1.271,0.789,2.358,1.81,3.222,3.046
			c2.09,2.984,2.519,6.816,1.174,10.51l-4.47,12.281c1.946-1.068,3.742-1.314,4.979-1.314c3.624,0,6.886,1.967,8.73,5.26
			c2.077,3.714,1.955,8.325-0.321,12.031C96.727,354.836,86.024,362.71,74.801,362.71z M94.582,282.758l0.001,7.343L94.582,282.758
			L94.582,282.758z"/>
	</g>
	<g>
		<path fill="#E62F49" d="M110.94,314.205l-1.027,2.823c6.487,14.232,8.371,29.491,0.67,50.648
			c-7.794,21.413-20.237,36.931-30.496,36.931c-8.975,0-8.248-9.746-4.793-19.234l25.108-68.985
			c-0.162-0.259-0.28-0.643-0.443-0.898c-1.304-2.052-2.666-3.592-1.921-5.644c0.467-1.28,1.925-2.82,4.069-3.078
			c0.385,0,1.072-0.126,1.843-0.126l13.255-36.418c1.353-3.717,0.163-3.973,0.49-4.871c0.326-0.898,2.821-1.411,4.616-1.411
			c4.231,0,5.991,2.565,4.871,5.643l-13.207,36.288c6.083-0.514,12.765-0.898,16.226-0.898c2.822,0,4.931,0.898,3.951,3.592
			c-0.654,1.794-3.712,8.077-5.377,8.077c-0.771,0-0.046-1.284-3.414-1.538L110.94,314.205z M105.013,330.489l-19.975,54.884
			c-1.494,4.104-3.081,9.872-0.516,9.872c3.717,0,10.39-11.285,16.317-27.568C105.086,356.009,106.826,342.416,105.013,330.489z"/>
		<path fill="#E62F49" d="M80.087,411.949c-5.043,0-9.236-2.02-11.804-5.689c-3.67-5.241-3.632-13.113,0.111-23.399l23.915-65.705
			c-1.333-2.285-2.685-5.656-1.172-9.817c1.225-3.362,3.982-6,7.372-7.216l11.796-32.41c0.062-0.17,0.108-0.308,0.143-0.42
			c-0.192-1.003-0.328-2.597,0.348-4.452c2.046-5.634,8.734-6.241,11.515-6.241c4.583,0,8.347,1.771,10.598,4.984
			c2.091,2.987,2.519,6.818,1.173,10.514l-9.354,25.696c2.092-0.102,3.999-0.163,5.473-0.163c5.626,0,8.476,2.385,9.876,4.383
			c1.05,1.501,2.572,4.671,0.973,9.063c-1.754,4.82-5.683,12.908-12.276,12.908c-0.932,0-2.902-0.192-4.742-1.608l-4.261-0.265
			c4.935,15.198,4.158,30.367-2.288,48.078C110.47,389.453,96.47,411.949,80.087,411.949z"/>
	</g>
	<g>
		<path fill="#E62F49" d="M143.683,291.896l7.888-21.672c1.353-3.717,0.162-3.973,0.49-4.871c0.326-0.898,2.821-1.411,4.615-1.411
			c4.231,0,5.991,2.565,4.873,5.643l-8.169,22.439c7.82,0,16.844-0.128,25.703-0.514c4.99-3.846-0.643,8.465-4.023,8.593
			c-10.352,0.256-17.917,0.256-24.712,0.256l-14.795,40.647c-1.494,4.104-0.479,5.897,2.213,5.897
			c5.129,0,10.424-8.207,13.631-13.849c1.495-2.692,3.196-3.845,4.479-3.845c2.052,0,3.461,2.821,2.574,5.255
			c-0.046,0.128-0.14,0.388-0.455,0.899c-5.259,8.463-14.59,20.005-25.617,20.005c-6.923,0-10.302-4.104-6.615-14.235l14.842-40.775
			c-5.643,0-8.755-0.256-8.755-0.256c-4.104,0-3.285-8.593,0.435-8.593C132.282,291.51,136.805,291.768,143.683,291.896z"/>
		<path fill="#E62F49" d="M132.375,362.71c-7.297,0-11.082-3.217-12.971-5.916c-3.125-4.462-3.308-10.576-0.544-18.17l11.396-31.307
			c-4.935-0.794-8.486-5.258-8.486-11.002c0-2.498,0.66-4.988,1.858-7.012c1.906-3.216,5.142-5.136,8.653-5.136l0.417,0.012
			c0.032,0,2.252,0.125,5.889,0.243l6.083-16.711c0.061-0.168,0.107-0.307,0.143-0.417c-0.192-1.006-0.329-2.603,0.35-4.461
			c2.044-5.628,8.732-6.235,11.512-6.235c4.582,0,8.344,1.769,10.596,4.981c2.091,2.987,2.52,6.817,1.178,10.512l-4.556,12.51
			c4.548-0.069,8.903-0.188,13.036-0.351c0.987-0.455,2.221-0.827,3.624-0.827c4.314,0,7.762,3.467,7.846,7.89
			c0.084,4.505-5.028,15.82-13.063,16.126c-7.97,0.198-14.302,0.246-19.847,0.258l-5.968,16.394
			c1.938-1.444,4.108-2.224,6.352-2.224c3.221,0,6.174,1.582,8.105,4.339c2.146,3.068,2.671,7.195,1.366,10.773
			c-0.182,0.505-0.474,1.22-1.103,2.238C157.575,349.947,146.645,362.71,132.375,362.71z"/>
	</g>
	<g>
		<path fill="#E62F49" d="M158.761,341.006c-0.42,1.154-2.146,5.897,1.188,5.897c5.129,0,10.423-8.207,13.631-13.849
			c4.385-7.821,9.114-1.794,6.596,2.31c-5.386,8.463-14.589,20.005-25.617,20.005c-6.795,0-8.762-5.517-6.382-12.055l12.46-34.237
			c0.887-2.436,0.653-3.205,0.981-4.104c0.465-1.283,2.331-2.18,4.125-2.18c4.233,0,5.992,2.564,4.871,5.643L158.761,341.006z
			 M169.494,282.278c1.633-4.488,6.308-7.822,10.541-7.822c4.486,0,6.607,3.334,4.975,7.822c-1.54,4.23-6.182,7.822-10.667,7.822
			C170.109,290.101,167.954,286.509,169.494,282.278z"/>
		<path fill="#E62F49" d="M154.559,362.71c-5.194,0-9.505-2.068-12.136-5.827c-2.969-4.241-3.375-9.953-1.145-16.081l12.458-34.234
			c0.282-0.773,0.322-1.07,0.383-1.519c0.083-0.602,0.205-1.509,0.602-2.594c1.522-4.185,5.953-7.003,11.022-7.003
			c0.561,0,1.112,0.026,1.647,0.078c-1.367-0.846-2.554-1.96-3.497-3.307c-2.44-3.483-2.913-8.023-1.3-12.457
			c2.67-7.331,10.003-12.652,17.44-12.652c4.479,0,8.375,1.896,10.69,5.2c2.394,3.417,2.825,7.964,1.182,12.474
			c-2.623,7.213-10.177,12.653-17.565,12.653c-0.413,0-0.82-0.017-1.223-0.051c1.272,0.789,2.36,1.812,3.225,3.046
			c2.089,2.988,2.516,6.82,1.167,10.515l-4.467,12.276c1.946-1.066,3.743-1.314,4.98-1.314c3.622,0,6.886,1.967,8.729,5.26
			c2.078,3.714,1.955,8.323-0.32,12.031C176.485,354.836,165.782,362.71,154.559,362.71z M174.339,282.758l0.003,7.343v-7.343
			C174.342,282.758,174.342,282.758,174.339,282.758z"/>
	</g>
	<g>
		<path fill="#E62F49" d="M182.822,309.077c0.886-2.436,0.651-3.205,0.979-4.104c0.465-1.283,2.333-2.18,4.127-2.18
			c4.231,0,5.989,2.564,4.871,5.643l-2.101,5.769c6.075-7.18,12.698-12.692,18.98-12.692c8.592,0,8.076,7.053,5.931,12.95
			l-9.662,26.543c-0.419,1.154-2.145,5.897,1.187,5.897c5.13,0,10.424-8.207,13.632-13.849c1.492-2.692,3.195-3.845,4.479-3.845
			c2.05,0,3.459,2.821,2.572,5.255c-0.047,0.128-0.14,0.388-0.454,0.899c-5.26,8.463-14.592,20.005-25.617,20.005
			c-6.796,0-8.764-5.517-6.383-12.055l9.474-26.03c1.447-3.976,2.403-7.309-0.032-7.309c-3.718,0-15.681,11.026-20.267,21.157
			l-6.812,18.72c-0.887,2.438-1.878,5.517-5.598,5.517c-2.565,0-5.828-0.898-4.099-5.645L182.822,309.077z"/>
		<path fill="#E62F49" d="M201.746,362.71c-5.195,0-9.505-2.068-12.137-5.827c-2.305-3.293-3.065-7.47-2.248-12.041l-2.821,7.753
			c-0.907,2.501-3.669,10.115-12.414,10.115c-5.953,0-8.877-2.905-10.09-4.638c-1.46-2.085-2.802-5.661-0.909-10.859l14.795-40.648
			c0.281-0.771,0.322-1.067,0.381-1.517c0.081-0.598,0.204-1.502,0.596-2.581c1.527-4.196,5.957-7.015,11.028-7.015
			c3.574,0,6.649,1.076,8.899,3.075c4.39-2.92,8.649-4.358,12.851-4.358c6.827,0,10.4,3.056,12.194,5.616
			c2.069,2.955,3.857,8.335,0.637,17.188l-2.271,6.241c1.575-0.88,3.268-1.347,5.007-1.347c3.219,0,6.172,1.58,8.104,4.339
			c2.146,3.068,2.671,7.195,1.365,10.773c-0.18,0.502-0.471,1.211-1.09,2.221C226.945,349.947,216.016,362.71,201.746,362.71z"/>
	</g>
	<g>
		<path fill="#E62F49" d="M233.101,362.934l4.9-13.465c-3.497,2.563-7.705,4.615-12.192,4.615c-10.003,0-12.178-8.463-8.211-19.362
			c7.794-21.413,27.427-34.491,43.07-34.491c3.462,0,5.15,2.052,3.937,5.386c-0.791,2.178-1.456,2.949-2.738,2.949
			c-1.154,0-2.345-0.256-3.625-0.256c-9.744,0-24.192,8.333-30.913,26.799c-2.427,6.667-1.005,10.513,3.484,10.513
			c5.129,0,10.167-6.797,12.931-11.925l5.273-14.49c0.885-2.435,0.653-3.205,0.981-4.102c0.465-1.283,2.331-2.18,4.125-2.18
			c4.233,0,5.994,2.564,4.872,5.642l-12.693,34.878c6.481-5.129,12.918-11.541,18.701-20.39c1.753-2.692,3.197-3.845,4.48-3.845
			c2.052,0,3.46,2.821,2.574,5.255c-0.047,0.128-0.281,0.771-0.595,1.283c-9.776,14.875-19.965,22.439-29.081,28.467l-8.073,22.185
			c-4.901,13.462-13.424,18.208-19.966,18.208c-7.179,0-9.929-6.542-6.94-14.747C212.115,376.907,221.932,370.37,233.101,362.934z
			 M224.559,386.399l4.993-13.724c-5.642,4.231-10.235,9.105-13.034,16.801c-1.448,3.976-1.287,7.052,0.763,7.052
			C221.386,396.528,223.673,388.834,224.559,386.399z"/>
		<path fill="#E62F49" d="M214.341,411.949c-5.324,0-9.804-2.208-12.608-6.218c-3.314-4.732-3.762-11.434-1.232-18.384
			c4.518-12.406,12.77-19.639,22.072-26.153c-4.727-0.698-8.598-2.957-11.104-6.535c-3.851-5.496-4.116-13.26-0.772-22.447
			c6.939-19.063,26.809-39.323,49.97-39.323c4.214,0,7.694,1.653,9.798,4.657c1.201,1.716,2.934,5.373,1.038,10.581
			c-1.159,3.189-2.843,5.408-5.024,6.639c0.374,2.026,0.186,4.193-0.589,6.316l-0.64,1.759c1.239-0.593,2.649-0.974,4.231-0.974
			c3.221,0,6.174,1.582,8.105,4.339c2.146,3.068,2.671,7.195,1.365,10.773c-0.352,0.975-0.772,1.858-1.242,2.621l-0.115,0.178
			c-9.492,14.448-19.556,22.692-29.137,29.201l-7.253,19.93C235.021,405.896,223.273,411.949,214.341,411.949z"/>
	</g>
	<g>
		<path fill="#E62F49" d="M300.941,304.077c6.797,0,11.211,6.538,5.983,20.901c-1.82,4.999-4.328,10.13-7.243,14.617
			c0.804,0.256,1.702,0.256,2.599,0.256c5.514,0,10.002-4.231,12.592-9.232c1.587-2.95,10.235-3.462,5.955,3.718
			c-4.061,6.926-11.415,12.694-20.135,12.694c-2.307,0-4.393-0.256-6.214-0.896c-5.211,5.515-11.566,9.234-19.002,9.234
			c-11.795,0-14.858-8.85-10.285-21.416l22.262-61.165c1.354-3.719,0.164-3.975,0.49-4.871c0.329-0.898,2.822-1.41,4.615-1.41
			c4.234,0,5.993,2.562,4.873,5.642l-21.842,60.009c-3.081,8.465-2.418,14.746,3.737,14.746c3.205,0,6.037-1.794,8.556-4.487
			c-5.393-5.258-6.616-14.232-3.302-23.338C288.362,308.693,294.916,304.077,300.941,304.077z M293.084,334.465
			c1.586-2.948,2.837-6.025,3.724-8.462c3.126-8.592,2.719-13.463,0.41-13.463c-1.667,0-3.195,2.435-4.5,6.026
			C290.478,324.722,290.815,330.489,293.084,334.465z"/>
		<path fill="#E62F49" d="M275.477,362.71c-9.202,0-13.987-4.074-16.382-7.495c-2.837-4.054-5.281-11.467-0.803-23.771
			l22.262-61.165c0.061-0.17,0.107-0.308,0.144-0.421c-0.192-1.002-0.33-2.596,0.346-4.45c2.057-5.636,8.739-6.243,11.515-6.243
			c4.586,0,8.348,1.771,10.599,4.984c2.091,2.983,2.517,6.816,1.173,10.51l-8.253,22.676c1.576-0.396,3.202-0.6,4.862-0.6
			c5.158,0,9.72,2.293,12.52,6.29c2.342,3.345,4.356,9.166,2.11,18.688c1.125-0.312,2.312-0.474,3.526-0.474
			c3.888,0,7.254,1.841,9.005,4.923c1.368,2.409,2.311,6.437-0.969,11.936c-5.873,10.021-16.017,16.275-26.44,16.275
			c-1.401,0-2.712-0.077-3.953-0.231C290.316,359.764,283.034,362.71,275.477,362.71z"/>
	</g>
	<g>
		<path fill="#E62F49" d="M348.492,335.492c-4.826,6.924-15.824,19.877-27.493,19.877c-9.873,0-12.656-6.799-8.969-16.929
			l21.235-58.344c3.5-9.614,11.229-16.411,17.642-16.411c11.283,0,6.51,13.462,3.896,20.643
			c-6.86,18.851-27.954,44.753-30.183,46.291l-2.706,7.438c-1.866,5.13-1.169,8.847,3.576,8.847c5.899,0,13.198-8.079,16.403-13.719
			C346.188,325.618,351.01,331.389,348.492,335.492z M330.736,313.821c4.651-5.385,13.507-22.312,16.073-29.365
			c3.08-8.461,3.068-12.308,1.018-12.308c-1.41,0-3.043,3.077-3.789,5.127L330.736,313.821z"/>
		<path fill="#E62F49" d="M320.999,362.71c-8.457,0-12.826-3.702-15-6.809c-2.443-3.49-4.574-9.786-0.868-19.971l21.237-58.344
			c4.479-12.311,14.798-21.244,24.539-21.244c6.629,0,10.158,3.054,11.951,5.614c5.2,7.426,1.222,18.354-1.154,24.884
			c-4.604,12.647-15.056,28.227-23.072,38.607c2.9-2.781,5.877-3.293,7.676-3.293c3.646,0,6.925,1.97,8.77,5.272
			c2.055,3.667,1.929,8.229-0.327,11.904l-0.233,0.359C349.69,346.612,336.765,362.71,320.999,362.71z M330.981,334.61l-0.524,1.442
			c1.796-1.771,3.67-4.061,5.054-6.496c0.12-0.213,0.245-0.422,0.365-0.623C333.958,331.301,332.278,333.241,330.981,334.61z"/>
	</g>
	<g>
		<path fill="#E62F49" d="M395.969,334.337c-4.059,6.926-11.415,12.694-20.134,12.694c-2.309,0-4.267-0.256-5.957-0.896
			c-5.213,5.515-11.438,9.234-18.748,9.234c-12.948,0-14.705-11.029-10.037-23.853c6.858-18.848,21.271-30.26,24.093-30.26
			c3.334,0,3.423,6.793-0.704,8.976c-3.171,3.076-8.745,7.819-13.366,20.517c-3.92,10.769-1.647,16.154,3.352,16.154
			c3.592,0,6.599-1.924,9.34-4.872c-4.16-5.128-4.286-13.592-0.925-22.825c2.94-8.079,8.923-15,15.846-15
			c6.027,0,7.589,9.103,3.061,21.542c-1.729,4.741-3.97,9.488-6.837,13.848c0.806,0.256,1.573,0.256,2.472,0.256
			c5.514,0,10.003-4.231,12.593-9.232C391.601,327.669,400.25,327.157,395.969,334.337z M369.276,333.696
			c1.004-2.052,1.832-3.976,2.532-5.896c3.174-8.722,5.122-15.131,2.43-15.131c-1.411,0-2.925,2.05-4.374,6.025
			C367.765,324.464,367.728,329.85,369.276,333.696z"/>
		<path fill="#E62F49" d="M351.13,362.71c-9.098,0-13.881-4.103-16.291-7.544c-4.377-6.251-4.602-15.298-0.646-26.162
			c6.878-18.897,22.79-35.091,30.993-35.091c3.12,0,5.899,1.495,7.692,3.953c1.901-0.658,3.864-1.004,5.85-1.004
			c4.061,0,7.729,1.914,10.063,5.246c3.185,4.552,3.807,11.38,1.867,19.619c1.143-0.32,2.347-0.488,3.578-0.488
			c3.889,0,7.255,1.841,9.006,4.923c1.368,2.409,2.311,6.437-0.968,11.936c-5.873,10.021-16.015,16.275-26.439,16.275
			c-1.329,0-2.555-0.068-3.705-0.208C365.702,359.839,358.656,362.71,351.13,362.71z"/>
	</g>
	<g>
		<path fill="#E62F49" d="M388.164,331.133c5.367-14.745,19.502-29.62,31.68-29.62c8.849,0,9.242,8.077,7.609,12.564
			c-1.773,4.873-11.554,7.438-9.153,2.951c0.154-2.182,1.624-6.925-2.735-6.925c-4.744,0-12.687,9.489-16.888,21.029
			c-3.686,10.13-0.226,15.771,7.339,15.771c10.003,0,17.651-8.335,22.037-16.154c3.254-5.771,9.501-3.208,7.356,1.282
			c-3.745,7.82-15.034,23.338-33.884,23.338C390.112,355.369,382.424,346.903,388.164,331.133z"/>
		<path fill="#E62F49" d="M401.525,362.71c-8.127,0-14.823-3.173-18.861-8.938c-3.167-4.521-5.98-12.561-1.398-25.151
			c7.85-21.565,25.778-34.452,38.578-34.452c5.547,0,10.137,2.193,12.926,6.176c3.635,5.193,3.202,11.795,1.582,16.244
			c-0.458,1.264-1.121,2.43-1.928,3.486c3.789-0.11,7.269,1.676,9.216,4.764c1.93,3.064,2.075,6.84,0.394,10.357
			C435.955,347.893,421.701,362.71,401.525,362.71z M404.635,339.386c0.208,0.073,0.656,0.176,1.38,0.176
			c8.053,0,14-9.493,15.632-12.404c0.14-0.247,0.285-0.488,0.433-0.726c-4.476,0.888-8.356-0.605-10.32-3.884
			c-0.053-0.088-0.107-0.185-0.168-0.294c-2.029,2.76-4.274,6.605-6.016,11.39C404.365,336.972,404.465,338.815,404.635,339.386z"/>
	</g>
	<g>
		<path fill="#E62F49" d="M449.151,272.788c1.354-3.719,0.163-3.975,0.49-4.871c0.327-0.898,2.822-1.41,4.615-1.41
			c4.234,0,5.992,2.562,4.872,5.642l-14.561,40.005c6.155-5.64,13.104-10.641,18.874-10.641c7.951,0,8.983,6.668,6.372,13.846
			c-3.595,9.875-13.434,17.185-19.917,20.904c-0.725,5.513,0.229,10.641,5.23,10.641c5.899,0,13.198-8.079,16.405-13.719
			c4.387-7.823,9.115-1.796,6.597,2.308c-4.827,6.924-15.825,19.877-27.494,19.877c-10.129,0-12.594-11.542-9.516-20.005
			c1.447-3.976,14.864-8.079,19.159-19.875c1.165-3.205,0.293-5.386-2.143-5.386c-3.079,0-10.342,4.102-19.263,17.696l-8.028,22.053
			c-0.887,2.438-1.879,5.517-5.597,5.517c-2.566,0-5.828-0.898-4.101-5.645L449.151,272.788z"/>
		<path fill="#E62F49" d="M450.635,362.71c-5.894,0-10.941-2.536-14.232-7.148c-1.624,3.152-4.819,7.148-11.154,7.148
			c-5.953,0-8.877-2.905-10.092-4.638c-1.458-2.085-2.8-5.661-0.908-10.859l28.003-76.935c0.061-0.17,0.107-0.308,0.144-0.421
			c-0.191-1.002-0.328-2.596,0.347-4.45c2.057-5.636,8.737-6.243,11.515-6.243c4.585,0,8.348,1.771,10.599,4.984
			c2.091,2.983,2.518,6.816,1.172,10.51l-7.319,20.114c1.619-0.404,3.194-0.604,4.734-0.604c7.211,0,10.856,3.671,12.389,5.857
			c3.131,4.47,3.442,10.806,0.883,17.844c-0.537,1.471-1.171,2.886-1.886,4.241c0.422-0.051,0.809-0.069,1.149-0.069
			c3.624,0,6.889,1.966,8.73,5.259c2.078,3.714,1.953,8.325-0.321,12.031l-0.234,0.359
			C479.327,346.612,466.402,362.71,450.635,362.71z"/>
	</g>
	<g>
		<path fill="#E62F49" d="M486.45,348.57c-1.167,3.207-5.012,6.028-8.475,6.028c-3.334,0-5.128-2.821-3.962-6.028
			c1.261-3.461,5.062-6.154,8.395-6.154C485.871,342.416,487.71,345.109,486.45,348.57z"/>
		<path fill="#E62F49" d="M477.975,361.94c-3.956,0-7.459-1.761-9.611-4.835c-2.203-3.148-2.659-7.175-1.251-11.045
			c2.282-6.265,8.855-10.986,15.295-10.986c4.048,0,7.606,1.765,9.758,4.838c2.194,3.136,2.627,7.207,1.184,11.171
			C491.095,357.272,484.487,361.94,477.975,361.94z"/>
	</g>
	<g>
		<path fill="#E62F49" d="M492.902,331.133c5.365-14.745,19.501-29.62,31.679-29.62c8.849,0,9.242,8.077,7.609,12.564
			c-1.772,4.873-11.555,7.438-9.153,2.951c0.154-2.182,1.624-6.925-2.735-6.925c-4.745,0-12.688,9.489-16.887,21.029
			c-3.688,10.13-0.227,15.771,7.338,15.771c10.002,0,17.651-8.335,22.036-16.154c3.255-5.771,9.501-3.208,7.356,1.282
			c-3.744,7.82-15.034,23.338-33.883,23.338C494.85,355.369,487.161,346.903,492.902,331.133z"/>
		<path fill="#E62F49" d="M506.262,362.71c-8.127,0-14.823-3.173-18.86-8.938c-3.168-4.521-5.981-12.561-1.4-25.151
			c7.85-21.565,25.778-34.452,38.579-34.452c5.546,0,10.137,2.193,12.926,6.176c3.635,5.193,3.201,11.795,1.583,16.244
			c-0.459,1.264-1.122,2.43-1.93,3.486c3.782-0.11,7.27,1.676,9.216,4.764c1.93,3.064,2.075,6.84,0.395,10.357
			C540.692,347.893,526.437,362.71,506.262,362.71z M509.373,339.386c0.207,0.073,0.655,0.176,1.38,0.176
			c8.053,0,14-9.493,15.631-12.404c0.14-0.247,0.285-0.488,0.434-0.726c-4.476,0.888-8.356-0.605-10.321-3.884
			c-0.053-0.088-0.107-0.185-0.166-0.294c-2.031,2.76-4.274,6.605-6.017,11.39C509.102,336.972,509.202,338.815,509.373,339.386z"/>
	</g>
	<g>
		<path fill="#E62F49" d="M585.722,334.337c-4.06,6.926-11.416,12.694-20.135,12.694c-2.308,0-4.267-0.256-5.956-0.896
			c-5.213,5.515-11.438,9.234-18.747,9.234c-12.951,0-14.707-11.029-10.039-23.853c6.86-18.848,21.271-30.26,24.094-30.26
			c3.333,0,3.423,6.793-0.705,8.976c-3.172,3.076-8.743,7.819-13.364,20.517c-3.921,10.769-1.647,16.154,3.352,16.154
			c3.59,0,6.599-1.924,9.339-4.872c-4.161-5.128-4.286-13.592-0.924-22.825c2.938-8.079,8.922-15,15.845-15
			c6.027,0,7.588,9.103,3.06,21.542c-1.728,4.741-3.969,9.488-6.836,13.848c0.805,0.256,1.573,0.256,2.472,0.256
			c5.515,0,10.002-4.231,12.593-9.232C581.353,327.669,590.001,327.157,585.722,334.337z M559.03,333.696
			c1.003-2.052,1.832-3.976,2.53-5.896c3.174-8.722,5.122-15.131,2.431-15.131c-1.41,0-2.926,2.05-4.374,6.025
			C557.519,324.464,557.481,329.85,559.03,333.696z"/>
		<path fill="#E62F49" d="M540.884,362.71c-9.101,0-13.883-4.103-16.294-7.544c-4.375-6.251-4.599-15.298-0.644-26.162
			c6.878-18.897,22.79-35.091,30.992-35.091c3.121,0,5.897,1.495,7.69,3.953c1.902-0.658,3.865-1.004,5.852-1.004
			c4.06,0,7.729,1.914,10.063,5.246c3.185,4.552,3.807,11.38,1.867,19.619c1.142-0.32,2.348-0.488,3.579-0.488
			c3.887,0,7.254,1.841,9.005,4.923c1.367,2.409,2.311,6.437-0.969,11.936c-5.871,10.021-16.014,16.275-26.439,16.275
			c-1.328,0-2.554-0.068-3.705-0.208C555.456,359.839,548.409,362.71,540.884,362.71z"/>
	</g>
	<g>
		<path fill="#E62F49" d="M628.976,355.369c-6.797,0-8.765-5.517-6.384-12.055l9.474-26.03c1.446-3.976,2.403-7.309,0.224-7.309
			c-3.462,0-14.785,11.026-19.24,21.157l-6.814,18.72c-0.887,2.438-1.879,5.517-5.598,5.517c-2.563,0-5.825-0.898-4.1-5.645
			l11.808-32.44c1.448-3.976,2.403-7.309,0.224-7.309c-3.464,0-14.785,11.026-19.24,21.157l-6.814,18.72
			c-0.887,2.438-1.878,5.517-5.598,5.517c-2.565,0-5.827-0.898-4.1-5.645l14.796-40.647c0.885-2.436,0.652-3.205,0.979-4.104
			c0.467-1.283,2.332-2.18,4.127-2.18c4.23,0,5.99,2.564,4.872,5.643l-1.962,5.385c5.854-6.926,12.301-12.309,18.072-12.309
			c7.693,0,7.586,6.281,5.742,12.053c5.68-6.798,12.079-12.053,17.852-12.053c8.335,0,7.689,7.053,5.545,12.95l-9.663,26.543
			c-0.419,1.154-2.145,5.897,1.187,5.897c5.13,0,10.425-8.207,13.633-13.849c1.491-2.692,3.194-3.845,4.479-3.845
			c2.05,0,3.459,2.821,2.57,5.255c-0.047,0.128-0.14,0.388-0.452,0.899C649.204,343.827,640,355.369,628.976,355.369z"/>
		<path fill="#E62F49" d="M628.976,362.71c-5.196,0-9.508-2.068-12.138-5.827c-1.553-2.218-2.403-4.833-2.546-7.702l-1.242,3.414
			c-0.907,2.501-3.667,10.115-12.413,10.115c-5.952,0-8.875-2.905-10.089-4.636c-0.723-1.032-1.413-2.429-1.703-4.206
			c-1.285,3.162-4.373,8.842-11.929,8.842c-5.953,0-8.876-2.905-10.09-4.638c-1.459-2.085-2.803-5.661-0.909-10.859l14.795-40.648
			c0.282-0.771,0.322-1.067,0.383-1.517c0.08-0.598,0.202-1.502,0.595-2.581c1.526-4.196,5.959-7.015,11.028-7.015
			c3.485,0,6.499,1.023,8.731,2.93c4.214-2.822,8.273-4.213,12.251-4.213c5.687,0,9.034,2.266,10.941,4.459
			c4.334-2.965,8.562-4.459,12.652-4.459c6.635,0,10.125,2.996,11.886,5.509c2.991,4.271,3.179,10.09,0.557,17.295l-2.271,6.241
			c1.576-0.88,3.269-1.347,5.008-1.347c3.219,0,6.172,1.58,8.104,4.339c2.145,3.068,2.671,7.195,1.365,10.773
			c-0.181,0.502-0.471,1.208-1.092,2.221C650.898,354.837,640.194,362.71,628.976,362.71z"/>
	</g>
</g>
<g>
	<path fill="#FFFFFF" d="M20.667,354.938c-15.899,0-19.088-15.897-10.361-39.877c9.288-25.518,36.96-56.804,62.475-56.804
		c9.231,0,14.091,6.027,10.499,15.9c-5.087,13.977-24.944,25.901-36.1,25.901c-3.077,0-4.94-1.924-3.4-6.154
		c0.654-1.796,2.193-4.617,3.092-4.617c0.896,0,0.686,1.282,4.405,1.282c6.539,0,18.652-7.565,21.64-15.772
		c1.074-2.949,0.69-7.18-5.209-7.18c-16.027,0-38.544,24.876-46.712,47.315c-6.72,18.464-4.637,30.004,3.569,30.004
		c13.078,0,26.187-17.693,30.013-28.208c0.467-1.283,0.958-3.337,1.284-4.231c0.888-2.438,2.857-2.566,5.037-2.566
		c2.307,0,5.921,2.052,4.894,4.874c-3.162,6.925-5.483,12.95-7.817,19.363c-2.194,6.025-4.352,12.309-7.198,20.13
		c2.576-0.384,4.931-0.512,7.028-0.641c6.167-0.386-0.819,10.002-5.354,10.13c-1.923,0-3.637,0.129-5.478,0.256
		c-5.869,14.361-15.06,31.159-30.062,31.159c-8.719,0-11.981-6.538-8.854-15.129c4.762-13.081,18.949-20.005,32.182-23.597
		l0.467-1.281c2.005-5.513,3.288-9.744,4.407-12.822C36.836,350.323,28.49,354.938,20.667,354.938z M36.401,365.968
		c-9.443,2.691-15.914,7.437-18.248,13.848c-1.4,3.848,0.044,5.514,2.608,5.514C26.531,385.329,32.025,376.227,36.401,365.968z"/>
	<path fill="#FFFFFF" d="M77.232,339.041c-0.419,1.153-2.146,5.896,1.188,5.896c5.129,0,10.424-8.207,13.63-13.847
		c4.387-7.822,9.116-1.796,6.598,2.307c-5.387,8.463-14.59,20.006-25.617,20.006c-6.795,0-8.762-5.517-6.381-12.055l12.46-34.238
		c0.887-2.434,0.653-3.204,0.98-4.103c0.466-1.281,2.332-2.18,4.126-2.18c4.232,0,5.992,2.566,4.871,5.643L77.232,339.041z
		 M87.966,280.312c1.633-4.487,6.308-7.819,10.54-7.819c4.487,0,6.607,3.332,4.975,7.819c-1.54,4.231-6.181,7.823-10.667,7.823
		C88.581,288.135,86.426,284.543,87.966,280.312z"/>
	<path fill="#FFFFFF" d="M109.169,312.241l-1.026,2.82c6.487,14.233,8.371,29.492,0.67,50.65
		c-7.794,21.412-20.238,36.93-30.497,36.93c-8.975,0-8.247-9.745-4.792-19.234l25.108-68.985c-0.162-0.259-0.281-0.643-0.443-0.898
		c-1.305-2.05-2.667-3.592-1.921-5.642c0.467-1.283,1.925-2.822,4.068-3.078c0.385,0,1.072-0.127,1.843-0.127l13.254-36.419
		c1.353-3.717,0.163-3.973,0.49-4.871c0.327-0.899,2.822-1.411,4.616-1.411c4.232,0,5.991,2.565,4.87,5.643l-13.207,36.288
		c6.084-0.512,12.766-0.898,16.227-0.898c2.821,0,4.931,0.898,3.949,3.591c-0.653,1.795-3.711,8.079-5.376,8.079
		c-0.771,0-0.046-1.285-3.416-1.54L109.169,312.241z M103.243,328.525l-19.975,54.882c-1.494,4.104-3.082,9.872-0.517,9.872
		c3.718,0,10.39-11.284,16.317-27.567C103.315,354.043,105.056,340.45,103.243,328.525z"/>
	<path fill="#FFFFFF" d="M141.911,289.931l7.889-21.673c1.353-3.717,0.162-3.973,0.492-4.871c0.326-0.899,2.821-1.411,4.614-1.411
		c4.234,0,5.991,2.565,4.873,5.643l-8.167,22.439c7.818,0,16.843-0.127,25.701-0.514c4.991-3.845-0.641,8.465-4.022,8.592
		c-10.353,0.256-17.918,0.256-24.712,0.256l-14.795,40.649c-1.494,4.103-0.479,5.896,2.213,5.896
		c5.128,0,10.424-8.207,13.629-13.847c1.495-2.693,3.199-3.847,4.479-3.847c2.053,0,3.462,2.821,2.574,5.255
		c-0.046,0.128-0.14,0.387-0.455,0.898c-5.26,8.463-14.589,20.006-25.617,20.006c-6.923,0-10.302-4.104-6.615-14.234l14.843-40.777
		c-5.643,0-8.755-0.256-8.755-0.256c-4.104,0-3.285-8.592,0.435-8.592C130.513,289.544,135.034,289.802,141.911,289.931z"/>
	<path fill="#FFFFFF" d="M156.992,339.041c-0.42,1.153-2.147,5.896,1.187,5.896c5.13,0,10.426-8.207,13.631-13.847
		c4.387-7.822,9.116-1.796,6.596,2.307c-5.385,8.463-14.587,20.006-25.615,20.006c-6.796,0-8.763-5.517-6.382-12.055l12.459-34.238
		c0.89-2.434,0.653-3.204,0.983-4.103c0.465-1.281,2.33-2.18,4.126-2.18c4.23,0,5.99,2.566,4.869,5.643L156.992,339.041z
		 M167.726,280.312c1.63-4.487,6.305-7.819,10.539-7.819c4.484,0,6.607,3.332,4.973,7.819c-1.539,4.231-6.182,7.823-10.666,7.823
		C168.338,288.135,166.183,284.543,167.726,280.312z"/>
	<path fill="#FFFFFF" d="M181.051,307.11c0.885-2.434,0.651-3.204,0.979-4.103c0.465-1.281,2.334-2.18,4.127-2.18
		c4.232,0,5.989,2.566,4.871,5.643l-2.101,5.771c6.077-7.182,12.698-12.694,18.98-12.694c8.592,0,8.076,7.052,5.933,12.951
		l-9.661,26.543c-0.42,1.153-2.148,5.896,1.187,5.896c5.13,0,10.421-8.207,13.629-13.847c1.492-2.693,3.195-3.847,4.479-3.847
		c2.05,0,3.459,2.821,2.574,5.255c-0.046,0.128-0.139,0.387-0.455,0.898c-5.259,8.463-14.592,20.006-25.615,20.006
		c-6.798,0-8.765-5.517-6.385-12.055l9.475-26.031c1.446-3.975,2.402-7.308-0.032-7.308c-3.718,0-15.681,11.027-20.266,21.157
		l-6.815,18.72c-0.886,2.437-1.879,5.517-5.597,5.517c-2.566,0-5.83-0.898-4.101-5.644L181.051,307.11z"/>
	<path fill="#FFFFFF" d="M231.331,360.968l4.9-13.465c-3.499,2.564-7.707,4.615-12.192,4.615c-10.001,0-12.178-8.463-8.213-19.361
		c7.794-21.414,27.429-34.492,43.07-34.492c3.464,0,5.152,2.053,3.936,5.386c-0.791,2.178-1.456,2.948-2.738,2.948
		c-1.155,0-2.346-0.256-3.625-0.256c-9.744,0-24.192,8.335-30.91,26.799c-2.427,6.668-1.008,10.514,3.481,10.514
		c5.13,0,10.167-6.797,12.931-11.925l5.272-14.489c0.886-2.436,0.653-3.206,0.983-4.104c0.465-1.282,2.329-2.18,4.126-2.18
		c4.23,0,5.991,2.565,4.868,5.643l-12.691,34.878c6.482-5.128,12.917-11.542,18.699-20.388c1.754-2.693,3.198-3.847,4.482-3.847
		c2.05,0,3.459,2.821,2.574,5.255c-0.047,0.128-0.279,0.771-0.595,1.283c-9.776,14.875-19.965,22.439-29.082,28.467l-8.073,22.185
		c-4.902,13.462-13.423,18.208-19.966,18.208c-7.177,0-9.927-6.54-6.94-14.747C210.344,374.942,220.161,368.403,231.331,360.968z
		 M222.788,384.434l4.993-13.722c-5.642,4.23-10.235,9.104-13.034,16.799c-1.449,3.976-1.287,7.052,0.763,7.052
		C219.615,394.562,221.902,386.868,222.788,384.434z"/>
	<path fill="#FFFFFF" d="M299.17,302.111c6.798,0,11.211,6.539,5.984,20.901c-1.82,5.001-4.326,10.129-7.242,14.617
		c0.803,0.256,1.7,0.256,2.6,0.256c5.513,0,10.001-4.231,12.59-9.232c1.589-2.95,10.235-3.462,5.956,3.718
		c-4.059,6.926-11.417,12.694-20.135,12.694c-2.308,0-4.395-0.256-6.212-0.896c-5.213,5.515-11.569,9.234-19.005,9.234
		c-11.794,0-14.856-8.85-10.285-21.416l22.262-61.163c1.355-3.72,0.166-3.978,0.492-4.873c0.327-0.898,2.822-1.41,4.614-1.41
		c4.234,0,5.994,2.563,4.873,5.642l-21.84,60.011c-3.083,8.463-2.419,14.744,3.735,14.744c3.205,0,6.038-1.794,8.558-4.487
		c-5.395-5.258-6.618-14.232-3.302-23.338C286.591,306.728,293.144,302.111,299.17,302.111z M291.316,332.499
		c1.583-2.948,2.835-6.025,3.721-8.461c3.126-8.592,2.721-13.464,0.411-13.464c-1.666,0-3.193,2.436-4.501,6.026
		C288.707,322.757,289.043,328.525,291.316,332.499z"/>
	<path fill="#FFFFFF" d="M346.723,333.526c-4.829,6.924-15.825,19.877-27.494,19.877c-9.873,0-12.654-6.798-8.97-16.927
		l21.238-58.345c3.498-9.615,11.229-16.412,17.638-16.412c11.285,0,6.51,13.464,3.897,20.643
		c-6.857,18.853-27.952,44.754-30.183,46.291l-2.706,7.438c-1.864,5.13-1.169,8.847,3.577,8.847c5.897,0,13.197-8.079,16.402-13.72
		C344.417,323.652,349.24,329.423,346.723,333.526z M328.965,311.855c4.65-5.385,13.506-22.312,16.072-29.364
		c3.08-8.463,3.068-12.309,1.019-12.309c-1.409,0-3.044,3.077-3.79,5.127L328.965,311.855z"/>
	<path fill="#FFFFFF" d="M394.2,332.371c-4.059,6.926-11.415,12.694-20.134,12.694c-2.309,0-4.267-0.256-5.959-0.896
		c-5.213,5.515-11.437,9.234-18.746,9.234c-12.948,0-14.705-11.029-10.037-23.853c6.857-18.849,21.271-30.26,24.091-30.26
		c3.334,0,3.423,6.795-0.702,8.976c-3.173,3.076-8.743,7.82-13.364,20.516c-3.924,10.771-1.65,16.155,3.352,16.155
		c3.589,0,6.596-1.924,9.338-4.871c-4.161-5.129-4.288-13.593-0.925-22.825c2.94-8.078,8.924-15.002,15.847-15.002
		c6.026,0,7.586,9.104,3.058,21.543c-1.729,4.743-3.969,9.488-6.837,13.848c0.808,0.256,1.573,0.256,2.474,0.256
		c5.514,0,10.003-4.231,12.591-9.232C389.83,325.703,398.48,325.191,394.2,332.371z M367.505,331.73
		c1.005-2.052,1.832-3.975,2.531-5.896c3.176-8.722,5.123-15.132,2.43-15.132c-1.409,0-2.924,2.051-4.372,6.027
		C365.996,322.498,365.957,327.886,367.505,331.73z"/>
	<path fill="#FFFFFF" d="M386.395,329.167c5.367-14.745,19.499-29.62,31.678-29.62c8.848,0,9.242,8.077,7.61,12.566
		c-1.773,4.871-11.554,7.436-9.152,2.948c0.154-2.18,1.625-6.924-2.734-6.924c-4.748,0-12.688,9.489-16.89,21.029
		c-3.687,10.13-0.227,15.771,7.337,15.771c10.003,0,17.654-8.335,22.039-16.155c3.254-5.77,9.499-3.207,7.355,1.283
		c-3.745,7.82-15.035,23.338-33.881,23.338C388.341,353.403,380.655,344.938,386.395,329.167z"/>
	<path fill="#FFFFFF" d="M447.38,270.824c1.354-3.72,0.165-3.978,0.491-4.873c0.325-0.898,2.82-1.41,4.613-1.41
		c4.234,0,5.994,2.563,4.873,5.642l-14.56,40.005c6.154-5.64,13.104-10.641,18.872-10.641c7.951,0,8.983,6.668,6.374,13.846
		c-3.597,9.876-13.434,17.185-19.919,20.904c-0.724,5.513,0.229,10.641,5.23,10.641c5.901,0,13.2-8.079,16.405-13.72
		c4.389-7.821,9.117-1.795,6.598,2.309c-4.826,6.924-15.825,19.877-27.494,19.877c-10.128,0-12.594-11.543-9.515-20.006
		c1.448-3.975,14.862-8.078,19.158-19.874c1.164-3.205,0.294-5.386-2.144-5.386c-3.077,0-10.34,4.104-19.263,17.696l-8.028,22.053
		c-0.885,2.437-1.877,5.517-5.595,5.517c-2.566,0-5.829-0.898-4.103-5.644L447.38,270.824z"/>
	<path fill="#FFFFFF" d="M484.679,346.605c-1.165,3.206-5.013,6.027-8.475,6.027c-3.334,0-5.127-2.821-3.963-6.027
		c1.263-3.462,5.063-6.155,8.396-6.155C484.101,340.45,485.941,343.144,484.679,346.605z"/>
	<path fill="#FFFFFF" d="M491.132,329.167c5.367-14.745,19.499-29.62,31.677-29.62c8.849,0,9.242,8.077,7.611,12.566
		c-1.774,4.871-11.555,7.436-9.152,2.948c0.154-2.18,1.624-6.924-2.735-6.924c-4.747,0-12.688,9.489-16.889,21.029
		c-3.687,10.13-0.228,15.771,7.337,15.771c10.003,0,17.654-8.335,22.038-16.155c3.254-5.77,9.5-3.207,7.356,1.283
		c-3.746,7.82-15.035,23.338-33.882,23.338C493.08,353.403,485.393,344.938,491.132,329.167z"/>
	<path fill="#FFFFFF" d="M583.953,332.371c-4.059,6.926-11.415,12.694-20.134,12.694c-2.309,0-4.266-0.256-5.958-0.896
		c-5.213,5.515-11.438,9.234-18.747,9.234c-12.948,0-14.705-11.029-10.037-23.853c6.857-18.849,21.269-30.26,24.091-30.26
		c3.333,0,3.424,6.795-0.703,8.976c-3.173,3.076-8.744,7.82-13.365,20.516c-3.921,10.771-1.648,16.155,3.353,16.155
		c3.589,0,6.597-1.924,9.339-4.871c-4.162-5.129-4.288-13.593-0.925-22.825c2.939-8.078,8.923-15.002,15.846-15.002
		c6.027,0,7.586,9.104,3.058,21.543c-1.728,4.743-3.968,9.488-6.836,13.848c0.807,0.256,1.574,0.256,2.474,0.256
		c5.515,0,10.003-4.231,12.591-9.232C579.582,325.703,588.232,325.191,583.953,332.371z M557.258,331.73
		c1.003-2.052,1.832-3.975,2.53-5.896c3.177-8.722,5.124-15.132,2.432-15.132c-1.409,0-2.926,2.051-4.374,6.027
		C555.75,322.498,555.709,327.886,557.258,331.73z"/>
	<path fill="#FFFFFF" d="M627.206,353.403c-6.798,0-8.765-5.517-6.385-12.055l9.476-26.031c1.445-3.975,2.401-7.308,0.222-7.308
		c-3.459,0-14.785,11.027-19.24,21.157l-6.812,18.72c-0.889,2.437-1.879,5.517-5.6,5.517c-2.563,0-5.825-0.898-4.098-5.644
		l11.806-32.442c1.448-3.975,2.405-7.308,0.226-7.308c-3.462,0-14.784,11.027-19.24,21.157l-6.815,18.72
		c-0.886,2.437-1.879,5.517-5.596,5.517c-2.568,0-5.829-0.898-4.102-5.644l14.795-40.649c0.886-2.434,0.653-3.204,0.979-4.103
		c0.467-1.281,2.334-2.18,4.127-2.18c4.234,0,5.991,2.566,4.873,5.643l-1.962,5.385c5.854-6.925,12.3-12.309,18.071-12.309
		c7.693,0,7.586,6.281,5.744,12.054c5.678-6.797,12.077-12.054,17.85-12.054c8.335,0,7.689,7.052,5.547,12.951l-9.663,26.543
		c-0.419,1.153-2.146,5.896,1.187,5.896c5.132,0,10.423-8.207,13.631-13.847c1.492-2.693,3.194-3.847,4.479-3.847
		c2.051,0,3.459,2.821,2.574,5.255c-0.047,0.128-0.14,0.387-0.455,0.898C647.432,341.86,638.23,353.403,627.206,353.403z"/>
</g>
</svg>
